<?xml version="1.0" encoding="UTF-8" standalone="no"?>
<!-- Generator: Adobe Illustrator 12.0.0, SVG Export Plug-In . SVG Version: 6.00 Build 51448)  -->
<svg
   xmlns:dc="http://purl.org/dc/elements/1.1/"
   xmlns:cc="http://web.resource.org/cc/"
   xmlns:rdf="http://www.w3.org/1999/02/22-rdf-syntax-ns#"
   xmlns:svg="http://www.w3.org/2000/svg"
   xmlns="http://www.w3.org/2000/svg"
   xmlns:sodipodi="http://inkscape.sourceforge.net/DTD/sodipodi-0.dtd"
   xmlns:inkscape="http://www.inkscape.org/namespaces/inkscape"
   version="1.0"
   id="Layer_2"
   width="281.35001pt"
   height="215.39999pt"
   viewBox="0 0 375.443 273"
   overflow="visible"
   enable-background="new 0 0 375.443 273"
   xml:space="preserve"
   sodipodi:version="0.32"
   inkscape:version="0.43"
   sodipodi:docname="logo.svg"
   sodipodi:docbase="C:\Documents and Settings\Boss\Desktop"><metadata
   id="metadata40"><rdf:RDF><cc:Work
       rdf:about=""><dc:format>image/svg+xml</dc:format><dc:type
         rdf:resource="http://purl.org/dc/dcmitype/StillImage" /></cc:Work></rdf:RDF></metadata><defs
   id="defs38">
	
	
	
	
	
	
	
	
	
	
	
	
	
	
	
	
</defs><sodipodi:namedview
   inkscape:window-height="712"
   inkscape:window-width="1024"
   inkscape:pageshadow="2"
   inkscape:pageopacity="0"
   borderopacity="1.0"
   bordercolor="#666666"
   pagecolor="#ffffff"
   id="base"
   inkscape:zoom="1.3663004"
   inkscape:cx="187.7215"
   inkscape:cy="118.48914"
   inkscape:window-x="-4"
   inkscape:window-y="-4"
   inkscape:current-layer="Layer_2" />

<g
   id="g1444"
   transform="translate(0,2.135094)"><path
     id="path5"
     d="M 55.445722,-8.152644 C 44.071606,-8.0071726 22.553283,-6.5036346 0.70057772,3.8906206 L 0.16680422,3.3902079 L 0.20016506,282.62047 L 292.30771,282.62047 L 293.00829,283.28769 C 292.98346,283.06563 292.93388,282.84075 292.90821,282.62047 C 290.67211,263.43129 285.3376,251.01499 285.16849,250.62743 C 286.64423,250.91867 334.08837,259.90799 363.46639,218.26741 C 393.30967,175.968 356.01118,118.75094 353.52486,115.0156 C 351.03641,111.28453 307.50957,51.57528 245.33564,71.47969 C 183.16065,91.386239 190.62386,152.34638 190.62386,152.34638 C 190.62385,152.34638 180.26919,146.5141 172.80917,144.43986 C 165.3481,142.36989 150.02371,141.13714 150.02371,141.13714 C 150.02373,141.13714 176.96485,101.31762 155.8285,49.061203 C 134.68573,-3.1888096 78.71931,-8.152644 57.580816,-8.152644 C 56.911932,-8.152644 56.208765,-8.1624031 55.445722,-8.152644 z "
     style="fill:#2cb1e6" /><path
     d="M 262.92437,282.61083 L 0.18397492,282.61083 L 0.28325679,250.48834 M 262.92437,282.61083 C 261.75754,249.9898 249.38467,225.5323 250.31984,225.06578 C 251.97775,224.23629 280.16312,238.75066 305.03376,233.77376 C 329.90334,228.79792 344.82231,207.64768 344.82231,207.64768 C 344.82231,207.64768 362.234,186.49637 356.0134,151.66125 C 349.79281,116.82612 317.46855,96.921707 317.46855,96.921707 C 317.46855,96.921707 283.89633,77.015158 250.32305,89.455283 C 216.74869,101.89754 213.01869,137.97743 213.01869,137.97743 C 213.01869,137.97743 210.94764,145.85699 211.77499,155.80867 C 212.60341,165.76141 215.92241,181.10526 214.26131,181.51947 C 212.60341,181.93688 201.41445,170.73618 175.71646,161.61399 C 150.0174,152.4886 130.94781,153.73336 130.94781,151.66018 C 130.94781,150.65882 135.74643,146.18473 139.65152,137.97743 C 143.82029,129.215 147.1126,116.47063 147.1126,108.116 C 147.1126,91.944803 147.1126,70.793494 125.97304,48.398493 C 104.8324,26.00456 82.450214,23.518243 67.528042,23.518243 C 53.56773,23.518243 23.23872,26.783869 0.048396453,52.665478 L 0.048396453,174.73307 C 15.245996,187.90553 33.193596,198.00346 32.709997,200.18339 L 32.709997,200.18339 C 32.307532,201.99609 10.5221,218.68078 0.28432434,250.48941"
     id="path7"
     style="fill:#55489d" /><path
     d="M 35.063938,171.40233 C 35.304136,171.16213 35.422634,170.92513 35.422634,170.686 C 35.422634,170.38709 35.27211,170.14903 34.974264,169.96968 C 34.853631,169.90669 34.614501,169.85118 34.254737,169.79033 C 33.896042,169.72734 33.520265,169.65689 33.132746,169.56721 C 32.743091,169.47754 32.384395,169.37078 32.054523,169.25229 C 31.724651,169.13379 31.560249,168.98326 31.560249,168.80392 C 31.560249,168.3833 32.248817,168.02567 33.625952,167.72996 C 34.82374,167.43212 36.050351,167.21861 37.308989,167.10011 C 38.56656,166.98161 39.792104,166.92076 40.990959,166.92076 C 46.91798,166.92076 52.471359,167.43212 57.65003,168.44522 C 62.8287,169.45832 68.083167,170.98492 73.412361,173.01219 C 75.927502,173.96871 78.547262,175.10244 81.270575,176.41553 C 83.994955,177.72861 86.659552,179.19542 89.263299,180.80421 C 91.868114,182.41621 94.353363,184.17873 96.71798,186.08964 C 99.083664,188.00161 101.1483,190.04597 102.91509,192.2259 C 104.68188,194.4069 106.08891,196.70639 107.13617,199.12545 C 108.18343,201.54452 108.70867,204.06926 108.70867,206.6965 C 108.70867,209.38458 108.1845,211.667 107.13617,213.55015 C 106.08784,215.4333 104.71177,217.03035 103.00476,218.3413 C 101.29776,219.65545 99.367632,220.70165 97.211187,221.47775 C 95.055809,222.25493 92.855595,222.8677 90.609476,223.315 C 88.364425,223.76337 86.16421,224.04734 84.008833,224.1669 C 81.852388,224.2854 79.9671,224.34518 78.350834,224.34518 C 77.212829,224.34518 75.850639,224.24056 74.264264,224.03239 C 72.677889,223.82209 71.166242,223.2691 69.728257,222.37342 L 69.638583,203.02307 C 69.998346,202.90457 70.328218,202.8149 70.626064,202.75405 C 70.926044,202.6932 71.374414,202.66437 71.974376,202.66437 C 73.771057,202.66437 75.656345,202.8149 77.632375,203.11274 C 79.609472,203.41059 81.479814,203.78423 83.245537,204.2326 C 85.012327,204.68097 86.554933,205.17311 87.871218,205.71008 C 89.188571,206.2492 90.086378,206.7851 90.565707,207.32528 C 90.265726,207.92418 89.711669,208.54869 88.903536,209.20844 C 88.094335,209.86284 87.361998,210.5781 86.702254,211.35848 C 87.180515,211.71717 87.825313,212.00327 88.634514,212.21145 C 89.442647,212.41748 90.116269,212.52424 90.655381,212.52424 C 91.433622,212.52424 92.181973,212.30112 92.901499,211.85168 C 93.619959,211.40331 94.277568,210.8642 94.877529,210.23862 C 95.476423,209.6109 95.954684,208.93941 96.314447,208.21989 C 96.674211,207.5025 96.853558,206.87478 96.853558,206.33887 C 96.853558,204.84751 96.37423,203.53015 95.41664,202.39855 C 94.45905,201.26375 93.200413,200.30723 91.644997,199.52899 C 90.087446,198.75288 88.350547,198.11128 86.435367,197.60206 C 84.51912,197.09498 82.618887,196.70746 80.731464,196.43844 C 78.845108,196.16942 77.063372,195.97512 75.387323,195.85449 C 73.711275,195.73706 72.36403,195.67514 71.346658,195.67514 L 70.089088,195.67514 C 69.969522,194.66204 69.878781,193.69057 69.818998,192.76181 L 69.63965,190.02995 C 69.579868,189.01472 69.490194,188.05499 69.369561,187.16039 C 69.251063,186.26258 69.055702,185.44484 68.785613,184.69649 C 68.516591,183.94921 68.141882,183.21687 67.663621,182.49948 C 67.184292,181.78209 66.525616,181.09672 65.686524,180.43804 C 65.14848,180.91524 64.697975,181.76607 64.339279,182.99375 C 63.980584,184.21716 63.680603,185.51636 63.440405,186.8871 C 63.201274,188.26103 63.006981,189.51646 62.856457,190.6502 C 62.707,191.785 62.632272,192.47143 62.632272,192.71163 L 62.452924,196.38186 C 58.022604,197.1601 54.370526,198.02695 51.495621,198.98347 C 48.621785,199.93999 46.135468,201.19222 44.040941,202.74337 C 42.064911,204.1173 41.078498,205.49124 41.078498,206.86303 C 41.078498,208.23804 41.556759,209.61197 42.515416,210.98483 C 43.473006,212.35877 44.460487,213.58324 45.478927,214.65613 C 46.676714,216.03006 48.592961,217.70291 51.2266,219.6736 C 53.862373,221.64536 57.244362,223.82636 61.375769,226.21232 C 61.674682,227.58519 61.97573,228.88653 62.273576,230.10887 C 62.573557,231.33228 63.052885,232.36139 63.711562,233.20049 L 65.777265,233.37983 C 66.377227,233.37983 66.91527,233.35101 67.394599,233.28803 C 67.87286,233.22931 68.383147,233.13857 68.922259,233.019 L 69.595881,230.73445 C 69.746405,230.2263 69.879848,229.73309 70.000481,229.25697 C 72.035226,229.55481 74.205549,229.85479 76.512518,230.15264 C 78.816284,230.45155 81.017566,230.60101 83.113161,230.60101 C 87.183718,230.60101 91.241464,230.1078 95.282129,229.12139 C 99.323862,228.13498 102.96099,226.64361 106.19566,224.64303 C 109.42819,222.64245 112.04795,220.13264 114.05388,217.11682 C 116.0598,214.101 117.06222,210.55995 117.06222,206.5022 C 117.06222,203.45542 116.37259,200.4695 114.99545,197.54121 C 113.61938,194.61614 111.79281,191.82343 109.5168,189.16524 C 107.24079,186.50705 104.66693,184.01326 101.7931,181.6828 C 98.920329,179.35235 95.98671,177.24928 92.992241,175.36506 C 89.997772,173.48404 87.064152,171.84109 84.190316,170.4394 C 81.316479,169.03771 78.772515,167.91892 76.556287,167.0809 C 72.125967,165.52761 67.501354,164.19959 62.680311,163.09574 C 57.860337,161.9919 53.414003,161.43784 49.343447,161.43784 C 48.326074,161.43784 47.098395,161.45386 45.661477,161.48161 C 44.224559,161.5115 42.743871,161.61719 41.216211,161.79547 C 39.688552,161.97482 38.163027,162.25879 36.635367,162.64737 C 35.107707,163.03382 33.761531,163.54518 32.593634,164.1729 C 31.425738,164.79848 30.469216,165.58846 29.720865,166.54712 C 28.972515,167.50364 28.597806,168.6662 28.597806,170.04014 C 28.597806,170.63689 29.062189,171.02655 29.989887,171.20376 C 30.917586,171.38311 31.891188,171.47278 32.908561,171.47278 C 33.387889,171.47278 33.821313,171.45677 34.210968,171.42901 C 34.600623,171.413 34.88459,171.40233 35.063938,171.40233 L 35.063938,171.40233 z M 62.098498,202.93766 L 61.290365,220.31733 C 59.19477,219.8412 57.144013,219.12381 55.138092,218.16515 C 53.132171,217.2097 51.410218,216.13682 49.973299,214.9401 C 49.314623,214.46397 48.612177,213.92806 47.862759,213.3281 C 47.113341,212.73027 46.394882,212.1175 45.706314,211.48978 C 45.017746,210.86207 44.448744,210.22154 44.000374,209.56286 C 43.549869,208.90632 43.325684,208.28074 43.325684,207.68078 C 43.325684,206.9036 43.894687,206.26307 45.032692,205.75279 C 46.170697,205.2457 47.607615,204.81334 49.343447,204.45358 C 51.080346,204.09489 52.995525,203.80985 55.092187,203.60275 C 57.187782,203.39457 59.193703,203.16932 61.10995,202.93019 L 62.098498,202.93019 L 62.098498,202.93766 z "
     id="path9"
     style="fill:#ffffff" /><path
     d="M 139.00031,171.22405 C 138.70247,170.20988 137.84843,169.37399 136.44247,168.71424 C 135.03544,168.0577 133.34338,167.72996 131.36735,167.72996 C 129.21091,167.72996 127.10144,168.17833 125.03466,169.07294 C 122.96896,169.96968 121.1125,171.08953 119.46634,172.43144 C 117.82018,173.77335 116.48788,175.2551 115.47051,176.86176 C 114.45207,178.47803 113.94285,180.03131 113.94285,181.5216 C 113.94285,182.53684 114.16704,183.4624 114.61647,184.3015 C 115.06591,185.14059 115.6189,186.00423 116.27864,186.89884 C 116.21886,187.1401 116.15908,187.39418 116.09823,187.6632 C 116.03845,187.93222 116.00855,188.18416 116.00855,188.42436 C 116.12812,189.4396 116.41315,190.30752 116.86259,191.02277 C 117.31203,191.74016 117.77428,192.15757 118.25467,192.27821 C 118.91335,192.15757 119.40762,191.89069 119.7375,191.47114 C 120.06737,191.0516 120.4709,190.54558 120.94916,189.94882 C 121.78719,190.24667 122.71595,190.4559 123.73332,190.5744 C 124.75176,190.69504 125.70935,190.75375 126.60716,190.75375 C 128.10386,190.75375 129.87065,190.30752 131.90646,189.41078 C 133.94228,188.51404 135.88735,187.36536 137.74381,185.9626 C 139.60028,184.55984 141.1717,182.97454 142.45917,181.21308 C 143.74663,179.45483 144.39143,177.70619 144.39143,175.97356 C 144.39143,175.13981 144.19607,174.42348 143.80748,173.82352 C 143.41782,173.2257 142.95344,172.71861 142.41433,172.30013 C 141.87629,171.88165 141.32223,171.58167 140.75216,171.40233 C 140.18422,171.22405 139.71984,171.13544 139.36008,171.13544 C 139.24051,171.13544 139.16472,171.15038 139.13589,171.17921 C 139.10493,171.20803 139.0601,171.22405 139.00031,171.22405 L 139.00031,171.22405 z M 123.37356,195.85983 C 123.07572,195.85983 122.8953,196.07013 122.83552,196.48861 C 122.23662,201.02676 121.84697,204.53578 121.66762,207.01463 C 121.48827,209.49027 121.36764,211.0617 121.30786,211.7161 C 121.24807,212.91069 121.20217,213.8512 121.17335,214.53977 C 121.14346,215.22833 121.1125,215.86779 121.08367,216.46669 C 121.05378,217.06345 121.03884,217.71999 121.03884,218.43951 L 121.03884,221.1276 C 121.03884,221.3678 121.08367,221.72649 121.17335,222.20262 C 121.26302,222.67874 121.38259,223.17409 121.53204,223.68117 C 121.68257,224.19146 121.86191,224.66865 122.07222,225.11702 C 122.28039,225.56539 122.53554,225.81733 122.83552,225.87818 C 123.19421,225.99668 123.61376,226.11945 124.09309,226.23688 C 124.57135,226.35538 124.99089,226.41623 125.35066,226.41623 C 126.4876,226.41623 127.23701,226.07461 127.59678,225.38604 C 127.95547,224.69747 128.13482,223.9961 128.13482,223.27764 C 128.13482,219.69708 128.01632,216.0386 127.77612,212.30646 C 127.53593,208.57218 127.35658,204.88594 127.23701,201.24133 C 127.11745,199.51084 126.84843,198.19455 126.42888,197.30102 C 126.00933,196.40748 124.98983,195.92068 123.37356,195.85983 L 123.37356,195.85983 z M 123.73226,184.75307 C 124.63006,183.49763 125.63249,182.27316 126.7406,181.07964 C 127.84872,179.88505 129.0006,178.80897 130.19839,177.85458 C 131.39511,176.89806 132.62279,176.13796 133.88036,175.56789 C 135.13793,175.00209 136.42539,174.71706 137.74168,174.71706 C 138.93946,174.71706 139.6291,174.92416 139.80845,175.34478 C 139.98779,175.76432 140.07747,176.3013 140.07747,176.95677 C 140.07747,178.33071 139.58319,179.54024 138.59571,180.58643 C 137.60717,181.63156 136.39443,182.51122 134.95858,183.22968 C 133.52166,183.946 132.02496,184.49792 130.46741,184.88651 C 128.91093,185.27403 127.56368,185.46833 126.42675,185.46833 L 124.44965,185.46833 C 124.33115,185.46833 124.18063,185.37972 124.00128,185.1993 C 123.823,185.01996 123.73226,184.87157 123.73226,184.75307 L 123.73226,184.75307 z M 118.34435,181.52801 C 118.52369,179.79538 119.27205,178.19833 120.59047,176.73686 C 121.90782,175.27432 123.70343,174.30392 125.97944,173.82352 C 126.09901,173.94095 126.15879,174.09041 126.15879,174.27189 L 126.15879,174.35943 C 125.61968,174.83662 125.00691,175.40563 124.31727,176.06324 C 123.62764,176.72191 122.95508,177.39126 122.29641,178.0809 L 120.45382,180.00889 C 119.88588,180.60778 119.45246,181.11167 119.15248,181.53335 C 119.03291,181.64971 118.88239,181.71269 118.70304,181.71269 C 118.58348,181.70629 118.46391,181.64651 118.34435,181.52801 L 118.34435,181.52801 z "
     id="path11"
     style="fill:#ffffff" /><path
     d="M 136.96237,203.7458 C 137.44063,203.44688 138.03952,203.20775 138.75905,203.02841 C 139.47751,202.84906 140.58562,202.63982 142.08232,202.40069 C 142.79971,202.28219 143.84804,202.16049 145.22411,202.04306 C 146.60232,201.92349 148.05311,201.80393 149.58077,201.6833 C 151.10843,201.5648 152.58912,201.46018 154.02604,201.37051 C 155.46402,201.28083 156.57107,201.17408 157.34931,201.05771 C 157.70801,200.99473 158.20228,200.92214 158.83107,200.83246 C 159.45985,200.74279 159.95413,200.63603 160.31389,200.51967 C 160.79215,200.34032 161.22664,200.08625 161.6163,199.75851 C 162.00488,199.4265 162.22907,198.99415 162.28992,198.45503 C 162.28992,197.97998 162.20025,197.6501 162.01983,197.47076 C 161.84048,197.29141 161.60028,197.17291 161.30137,197.11206 C 159.80467,196.75336 158.08272,196.41068 156.13765,196.07974 C 154.19151,195.74987 152.0799,195.5876 149.80496,195.5876 C 149.68646,195.5876 149.16123,195.61643 148.23246,195.67728 C 147.30476,195.73919 146.16676,195.87371 144.82058,196.07974 C 143.47227,196.29005 142.0503,196.59003 140.55466,196.97862 C 139.05796,197.364 137.66588,197.8903 136.37842,198.54471 C 135.09096,199.20338 134.02768,200.03714 133.18966,201.05771 C 132.35163,202.07295 131.93209,203.26327 131.93209,204.63827 C 131.93209,205.59479 132.05272,206.38798 132.29185,207.01569 C 132.53205,207.64128 133.05621,208.1505 133.86435,208.53802 C 134.67248,208.92767 135.85425,209.21164 137.4118,209.38885 C 138.96829,209.5682 141.03399,209.68883 143.60891,209.74755 C 144.5665,209.74755 145.79418,209.85323 147.29088,210.06247 C 148.78758,210.27064 150.25439,210.55568 151.69238,210.91331 C 153.1293,211.27094 154.35591,211.73532 155.37435,212.30219 C 156.39172,212.86905 156.90094,213.54054 156.90094,214.31878 C 156.90094,215.15467 156.24227,215.86993 154.92491,216.47096 C 153.60756,217.06985 152.1258,217.56092 150.47858,217.94951 C 148.83242,218.3381 147.24605,218.62313 145.71839,218.80248 C 144.1918,218.98183 143.21819,219.0715 142.79971,219.0715 C 141.96169,219.0715 141.12366,219.05442 140.28564,219.0256 C 139.44762,218.99677 138.66937,218.91884 137.94985,218.80248 C 137.23246,218.68185 136.64851,218.45873 136.198,218.12886 C 135.74963,217.79899 135.52438,217.3677 135.52438,216.82859 C 135.52438,215.81442 135.82436,215.18777 136.42326,214.9465 C 137.02215,214.7063 137.65093,214.5878 138.30961,214.5878 C 139.20742,214.5878 140.09135,214.7063 140.9582,214.9465 C 141.82611,215.18777 142.68015,215.44077 143.51817,215.7098 C 144.3562,215.97775 145.14938,216.21688 145.89774,216.42505 C 146.64609,216.63322 147.35067,216.73998 148.00934,216.73998 C 149.14628,216.73998 150.19568,216.53181 151.1522,216.11333 C 152.11086,215.69272 152.76954,215.3052 153.1293,214.94437 C 153.2478,214.828 153.30865,214.64865 153.30865,214.40846 C 153.30865,214.28996 153.2478,214.16826 153.1293,214.04976 C 151.2739,213.09324 149.31175,212.39186 147.24605,211.94349 C 145.18034,211.49512 143.27904,211.27094 141.54214,211.27094 C 140.64434,211.27094 139.71664,211.36168 138.75905,211.54103 C 137.80146,211.72037 136.91753,212.01822 136.1094,212.43563 C 135.30126,212.85731 134.64365,213.42204 134.13337,214.13943 C 133.62415,214.85789 133.37007,215.75357 133.37007,216.82859 C 133.37007,217.72426 133.75866,218.67864 134.53797,219.69815 C 135.31621,220.71339 136.36347,221.63682 137.68083,222.47591 C 138.99818,223.30966 140.52477,223.9993 142.26167,224.53628 C 143.9975,225.07432 145.82407,225.34334 147.74032,225.34334 C 148.45878,225.34334 149.56583,225.27075 151.06253,225.12022 C 152.55923,224.9697 154.07087,224.55336 155.59853,223.86372 C 157.12513,223.17622 158.47237,222.16098 159.64027,220.81801 C 160.8071,219.4729 161.39104,217.578 161.39104,215.12798 C 161.39104,213.03879 160.88182,211.41185 159.86445,210.24716 C 158.84601,209.08246 157.58951,208.21668 156.09174,207.64661 C 154.59611,207.08188 152.94995,206.72212 151.1522,206.57266 L 146.21266,206.1702 C 144.41705,206.04956 142.8595,205.87022 141.54214,205.63002 C 140.22586,205.38982 138.6982,204.94145 136.96237,204.28491 C 136.8428,204.28491 136.78195,204.22619 136.78195,204.10556 C 136.78195,203.98493 136.84173,203.86216 136.96237,203.7458 L 136.96237,203.7458 z "
     id="path13"
     style="fill:#ffffff" /><path
     d="M 180.78837,193.26462 L 181.0574,194.34071 C 181.59757,196.4299 182.10466,198.22338 182.58612,199.71367 C 183.06545,201.2061 183.48393,202.62701 183.84369,203.96998 C 184.20452,205.31189 184.48849,206.71571 184.69666,208.17825 C 184.9059,209.64186 185.01159,211.38943 185.01159,213.41991 C 185.01159,214.19601 184.99664,214.77676 184.96782,215.16748 C 184.939,215.555 184.77139,215.7493 184.47355,215.7493 C 184.53546,215.7493 184.32302,215.51123 183.84369,215.03297 C 182.64697,213.53947 181.43317,211.80791 180.20763,209.83615 C 178.98208,207.86546 177.79711,205.99939 176.66124,204.23794 C 175.5243,202.47648 174.45996,200.98299 173.47354,199.75958 C 172.48499,198.53617 171.66298,197.92233 171.00431,197.92233 C 170.34563,197.92233 169.74674,198.34187 169.20762,199.17563 C 168.66851,200.01152 168.16036,201.08654 167.67996,202.40069 C 167.2017,203.7127 166.78216,205.1635 166.42239,206.7456 C 166.0637,208.32664 165.76372,209.91088 165.52459,211.49085 C 165.28439,213.07402 165.10504,214.53763 164.98548,215.88167 C 164.86591,217.22465 164.80506,218.28579 164.80506,219.06189 C 164.80506,219.5978 164.8499,220.26929 164.94064,221.07636 C 165.03031,221.88556 165.20966,222.65953 165.47975,223.40895 C 165.74877,224.15409 166.10853,224.79782 166.5569,225.33694 C 167.00634,225.87498 167.59029,226.144 168.30875,226.144 C 168.78808,226.144 169.19161,225.9796 169.52148,225.65186 C 169.85135,225.31985 170.10543,224.93127 170.28585,224.4829 C 170.46519,224.03666 170.61465,223.57335 170.73422,223.09509 C 170.85378,222.61789 170.94346,222.22717 171.00431,221.92933 C 171.12387,221.21407 171.22849,220.18175 171.31816,218.83878 C 171.40784,217.4926 171.48257,216.10479 171.54342,214.67107 C 171.6032,213.23843 171.66298,211.95417 171.72276,210.82043 C 171.78255,209.68563 171.84233,208.97144 171.90211,208.67146 C 172.08253,208.01492 172.29177,207.68398 172.5309,207.68398 C 172.71131,207.68398 173.02517,208.10459 173.47461,208.94048 C 173.92405,209.7753 174.44714,210.80655 175.04604,212.0321 C 175.646,213.25551 176.30468,214.5846 177.02314,216.01618 C 177.74159,217.4499 178.50489,218.77899 179.31409,220.0024 C 180.12329,221.22581 180.97733,222.25493 181.873,223.09402 C 182.77081,223.92884 183.63766,224.34839 184.47568,224.34839 C 185.55497,224.34839 186.52537,223.97368 187.39329,223.22746 C 188.2612,222.48231 188.99461,221.52473 189.59457,220.3611 C 190.1956,219.19534 190.64183,217.91321 190.94395,216.50939 C 191.24179,215.1077 191.39339,213.71669 191.39339,212.34275 C 191.39339,209.23833 191.0048,206.3709 190.22549,203.74366 C 189.44725,201.11536 188.53129,198.85963 187.48616,196.97968 C 186.44104,195.09653 185.36281,193.63292 184.25577,192.58993 C 183.14659,191.5448 182.29362,191.02064 181.69579,191.02064 C 181.27624,191.02064 181.02217,191.24589 180.93249,191.69212 C 180.84282,192.14049 180.79691,192.54509 180.79691,192.90272 L 180.79691,193.26249 L 180.79051,193.26249 L 180.79051,193.26462 L 180.78837,193.26462 z "
     id="path15"
     style="fill:#ffffff" /><path
     d="M 215.663,220.58635 C 215.663,219.98746 215.42067,219.39283 214.94347,218.79501 C 214.46414,218.19611 213.95492,217.89613 213.41475,217.89613 C 212.93755,217.89613 212.44328,217.91535 211.93299,217.94204 C 211.4227,217.97086 210.93163,218.01677 210.4491,218.07548 C 207.57633,218.37439 205.31313,218.68825 203.66697,219.01812 C 202.02082,219.348 201.0771,219.5124 200.83904,219.5124 C 201.3173,218.49716 201.73792,217.48192 202.09661,216.46562 C 202.45744,215.44932 202.75529,214.46397 202.99655,213.50745 C 203.11398,213.26618 203.29333,213.15089 203.53567,213.15089 C 205.81061,213.15089 207.86243,213.11993 209.68901,213.05908 C 211.51558,212.99823 212.84788,212.94165 213.68377,212.88186 C 214.10545,212.81888 214.3734,212.53598 214.4951,212.02889 C 214.61253,211.52074 214.67445,211.08732 214.67445,210.72862 C 214.67445,210.30801 214.64349,209.8479 214.58478,209.33974 C 214.52286,208.83159 214.37447,208.42806 214.13427,208.12915 L 212.87563,207.9498 L 206.22695,207.9498 C 205.93017,207.9498 205.71773,207.84411 205.59923,207.63487 C 205.48074,207.42777 205.41989,207.23241 205.41989,207.05306 C 205.41989,205.91826 205.55333,205.05354 205.82449,204.45358 C 206.09351,203.85575 206.31663,203.4693 206.49811,203.28995 C 206.79595,203.22804 207.24432,203.20028 207.84642,203.20028 C 208.44638,203.20028 208.98122,203.18427 209.46375,203.15438 C 209.94201,203.12555 210.42028,203.11061 210.90281,203.11061 C 211.38,203.11061 211.94794,203.09459 212.60981,203.06577 C 213.26742,203.03588 214.07662,202.99211 215.03421,202.93019 C 215.4559,202.93019 215.94697,202.85653 216.5181,202.70494 C 217.08604,202.55655 217.60914,202.39215 218.0906,202.21493 C 218.56886,202.03559 218.99054,201.83916 219.34924,201.63099 C 219.70793,201.42388 219.88942,201.19863 219.88942,200.9595 C 219.88942,200.18126 219.51257,199.3774 218.76529,198.53724 C 218.01694,197.70135 217.43299,197.04587 217.01238,196.56548 C 216.05586,196.2687 215.30324,196.08935 214.76626,196.02743 C 214.22608,195.96765 213.74889,195.93776 213.32827,195.93776 C 211.47181,195.93776 209.79469,196.02743 208.29906,196.20678 C 206.80343,196.38613 205.4391,196.58256 204.21249,196.7918 L 200.80061,197.37254 C 199.75441,197.55296 198.74878,197.67039 197.79333,197.73231 C 197.01509,197.79102 196.43328,197.91165 196.04042,198.091 C 195.65076,198.27035 195.45647,198.59915 195.45647,199.07528 C 195.45647,199.55247 195.6198,199.98696 195.95074,200.37555 C 196.28168,200.76414 196.69909,201.1207 197.20831,201.45164 C 197.7186,201.78044 198.27159,202.07936 198.87155,202.34838 L 200.5807,203.11061 L 198.42318,208.03627 C 198.0015,208.09819 197.6001,208.1996 197.21045,208.34906 C 196.82186,208.50065 196.44609,208.6341 196.08525,208.75366 C 195.96782,209.11236 195.86214,209.4102 195.77246,209.64933 C 195.68279,209.88846 195.63688,210.18738 195.63688,210.54714 C 195.63688,211.02433 195.72656,211.41292 195.90591,211.71183 C 196.08525,212.00968 196.23791,212.39933 196.35641,212.87653 C 195.87815,214.25046 195.38281,215.61158 194.87252,216.95242 C 194.36223,218.29326 194.10923,219.47503 194.10923,220.4892 C 194.10923,222.40332 194.67823,224.13381 195.81623,225.68709 C 196.95317,227.2393 198.77974,228.01648 201.29595,228.01648 C 202.79158,228.01648 204.22957,227.79336 205.60564,227.34499 C 206.98384,226.89662 208.28625,226.34363 209.51286,225.68709 C 210.73947,225.03055 211.83371,224.35906 212.79023,223.66943 C 213.74675,222.98193 214.52713,222.40118 215.12602,221.92079 C 215.48152,221.69447 215.663,221.2461 215.663,220.58635 L 215.663,220.58635 z "
     id="path17"
     style="fill:#ffffff" /><path
     d="M 222.19532,251.76406 C 222.79635,249.37489 223.3045,247.24086 223.72405,245.35878 C 224.14359,243.47456 224.57702,241.64051 225.02645,239.8481 C 225.47589,238.05676 225.98404,236.18855 226.55411,234.24989 C 227.12312,232.30802 227.85866,230.05443 228.75646,227.48377 C 229.11623,227.42506 229.45998,227.37915 229.78985,227.35033 C 230.12079,227.32257 230.43465,227.30442 230.7357,227.30442 C 232.22919,227.30442 234.08886,226.85819 236.30295,225.96145 C 238.51918,225.06685 240.64253,223.81034 242.68048,222.19941 C 244.71736,220.58635 246.45319,218.67437 247.89011,216.46669 C 249.32916,214.259 250.04655,211.8378 250.04655,209.21057 C 250.04655,208.31383 249.95688,207.23774 249.77753,205.98551 C 249.59818,204.73008 249.30034,203.52161 248.87866,202.36012 C 248.45911,201.19436 247.86128,200.19514 247.08197,199.35711 C 246.30373,198.52336 245.34508,198.10274 244.20814,198.10274 C 243.07334,198.10274 241.70794,198.70057 240.12157,199.89516 C 238.53733,201.08761 236.90291,202.54054 235.22793,204.239 C 233.55188,205.94174 231.93348,207.73202 230.37807,209.6141 C 228.82052,211.49512 227.5053,213.15089 226.42494,214.58674 C 226.24559,214.8248 226.12816,214.9433 226.06624,214.9433 L 225.8869,214.9433 C 225.76947,214.8248 225.69154,214.65826 225.66164,214.45009 C 225.63282,214.24299 225.61787,214.04549 225.61787,213.86828 C 225.61787,212.25415 226.02248,210.61333 226.82954,208.94262 C 227.63981,207.26977 228.40417,205.86381 229.1205,204.73114 L 232.08294,200.25385 C 232.6829,199.35711 232.98181,198.4593 232.98181,197.5647 C 232.98181,196.72881 232.90709,196.12992 232.75763,195.77122 C 232.60604,195.41359 232.20357,195.17339 231.5449,195.0549 C 231.06663,195.11575 230.24142,195.77122 229.07566,197.02666 C 227.9099,198.28209 226.70998,199.87914 225.48443,201.81888 C 224.25889,203.75968 223.16252,205.9268 222.20493,208.3149 C 221.24841,210.703 220.76801,213.06121 220.76801,215.39167 C 220.76801,216.46775 220.91853,217.55665 221.21851,218.66156 C 221.51636,219.76541 221.90815,220.85537 222.38641,221.93146 C 221.12884,224.91952 220.08264,227.73998 219.24462,230.39924 C 218.40659,233.0585 217.75005,235.41458 217.26539,237.47815 C 216.78926,239.53851 216.44231,241.25406 216.23307,242.62799 C 216.0249,244.00086 215.91814,244.89653 215.91814,245.31821 C 215.91814,247.22805 216.47433,248.855 217.58031,250.19904 C 218.68736,251.54201 220.13922,252.30531 221.93591,252.48466 L 222.19532,251.76406 L 222.19532,251.76406 z M 233.24336,219.60314 C 233.42271,219.24444 233.73764,218.60178 234.18601,217.67515 C 234.63544,216.75065 235.14253,215.76424 235.71473,214.71911 C 236.2816,213.67398 236.82178,212.70252 237.33207,211.80578 C 237.84236,210.90904 238.21493,210.28132 238.45513,209.92369 C 238.81489,209.50308 239.26433,208.96717 239.80451,208.30849 C 240.34469,207.65409 240.91155,207.02637 241.51045,206.42748 C 242.11148,205.82858 242.7093,205.30548 243.30926,204.85818 C 243.90923,204.40981 244.38642,204.18563 244.74725,204.18563 C 245.34721,204.18563 245.68989,204.48347 245.77957,205.08237 C 245.86924,205.68126 245.91621,206.21717 245.91621,206.6965 C 245.91621,210.33897 244.62768,213.26405 242.05383,215.47814 C 239.29102,217.86944 236.35633,219.24444 233.24336,219.60314 L 233.24336,219.60314 z "
     id="path19"
     style="fill:#ffffff" /><path
     d="M 93.185467,244.16419 C 93.185467,244.66274 93.01893,245.19971 92.685855,245.77939 C 92.35278,246.358 91.833952,246.9206 91.129371,247.47145 C 90.423723,248.02231 89.524848,248.47068 88.433815,248.81123 C 87.342782,249.15177 86.073469,249.32258 84.629078,249.32258 C 83.531639,249.32258 82.536686,249.24679 81.645284,249.09519 C 80.75495,248.94147 79.937209,248.7034 79.195263,248.37567 C 78.453318,248.0458 77.75194,247.54405 77.093263,246.86616 C 76.593651,246.54055 76.148484,246.08258 75.759897,245.48368 C 75.37131,244.88372 75.07987,244.25387 74.889846,243.58665 C 74.697688,242.9173 74.601609,242.20631 74.601609,241.44942 C 74.601609,240.22601 74.842874,239.13285 75.324338,238.16885 C 75.806869,237.20592 76.501842,236.37644 77.40819,235.68467 C 78.315605,234.9929 79.383152,234.46233 80.608696,234.10256 C 81.83424,233.7364 83.137715,233.55598 84.518053,233.55598 C 86.20371,233.55598 87.705748,233.80258 89.024169,234.29792 C 90.341522,234.7922 91.356759,235.40924 92.066678,236.14478 C 92.776596,236.88032 93.13209,237.58383 93.13209,238.24465 C 93.13209,238.64711 92.938864,238.9994 92.555614,239.30579 C 92.171297,239.61217 91.701577,239.76377 91.148587,239.76377 C 90.544356,239.76377 90.092783,239.66021 89.79387,239.45418 C 89.497092,239.24601 89.178963,238.90759 88.838416,238.4368 C 88.325993,237.73116 87.731369,237.20699 87.052409,236.86217 C 86.374517,236.52056 85.539695,236.34975 84.544742,236.34975 C 82.958367,236.34975 81.690121,236.79598 80.741072,237.68739 C 79.79309,238.58199 79.319099,239.86839 79.319099,241.55084 C 79.319099,242.68778 79.530473,243.62615 79.953222,244.36169 C 80.37597,245.09723 80.966324,245.64168 81.72535,245.9961 C 82.484376,246.35053 83.377913,246.52988 84.407028,246.52988 C 85.514074,246.52988 86.450313,246.32704 87.215744,245.92351 C 87.981175,245.51998 88.570461,244.9008 88.984669,244.06705 C 89.148004,243.70195 89.377527,243.37741 89.674305,243.09344 C 89.968948,242.80948 90.452547,242.66963 91.119763,242.66963 C 91.685563,242.66963 92.171297,242.81909 92.576965,243.10626 C 92.982633,243.39343 93.185467,243.74678 93.185467,244.16419 L 93.185467,244.16419 z "
     id="path21"
     style="fill:#ffffff" /><path
     d="M 101.23264,235.56831 L 101.23264,239.63246 L 109.49011,239.63246 L 109.49011,235.56831 C 109.49011,234.91817 109.70042,234.41749 110.12424,234.07588 C 110.54592,233.73106 111.10424,233.55918 111.80028,233.55918 C 112.49953,233.55918 113.06639,233.72999 113.50089,234.07267 C 113.93431,234.41322 114.15209,234.91497 114.15209,235.57044 L 114.15209,247.27823 C 114.15209,247.94865 113.93111,248.4568 113.49128,248.80482 C 113.05145,249.15177 112.48885,249.32365 111.80028,249.32365 C 111.09357,249.32365 110.53204,249.15071 110.11569,248.80055 C 109.69828,248.45146 109.49011,247.94331 109.49011,247.27609 L 109.49011,242.49028 L 101.23264,242.49028 L 101.23264,247.27609 C 101.23264,247.94545 101.01272,248.45467 100.57289,248.80375 C 100.13306,249.15177 99.569398,249.32365 98.881898,249.32365 C 98.175182,249.32365 97.613652,249.15071 97.197309,248.80162 C 96.780965,248.45253 96.571726,247.94331 96.571726,247.27823 L 96.571726,235.57044 C 96.571726,234.91817 96.775627,234.41749 97.186633,234.07588 C 97.597639,233.73106 98.162371,233.55918 98.881898,233.55918 C 99.580073,233.55918 100.14801,233.72999 100.58143,234.07161 C 101.01486,234.41108 101.23264,234.90856 101.23264,235.56831 L 101.23264,235.56831 z "
     id="path23"
     style="fill:#ffffff" /><path
     d="M 130.4909,247.33267 L 129.55252,245.51357 L 121.74021,245.51357 L 120.84454,247.28784 C 120.45702,248.05647 120.1122,248.58811 119.81116,248.88168 C 119.51118,249.17419 119.00836,249.32258 118.30592,249.32258 C 117.71129,249.32258 117.18819,249.16565 116.73769,248.84859 C 116.28718,248.53473 116.063,248.1675 116.063,247.75329 C 116.063,247.52697 116.1089,247.30705 116.20071,247.09034 C 116.29252,246.87363 116.44945,246.56297 116.67257,246.15624 L 121.83843,236.50668 L 122.3722,235.50319 C 122.58144,235.10926 122.8099,234.77405 123.06077,234.50183 C 123.30951,234.22747 123.64792,234.00115 124.07494,233.82393 C 124.50089,233.64565 125.02185,233.55705 125.63463,233.55705 C 126.2538,233.55705 126.77477,233.64565 127.20072,233.82287 C 127.62667,234.00008 127.96508,234.2232 128.21702,234.49222 C 128.47003,234.76231 128.67073,235.03133 128.81912,235.29715 C 128.96857,235.5619 129.1618,235.92807 129.40093,236.38818 L 134.72692,246.0687 C 135.15501,246.82559 135.36959,247.38071 135.36959,247.73407 C 135.36959,248.13867 135.14647,248.50377 134.7013,248.83151 C 134.25614,249.15925 133.71702,249.32365 133.08504,249.32365 C 132.71246,249.32365 132.39327,249.27347 132.12638,249.17312 C 131.85949,249.07491 131.63744,248.9436 131.46236,248.78134 C 131.28515,248.618 131.10153,248.36499 130.90938,248.02871 C 130.71828,247.69137 130.5795,247.45971 130.4909,247.33267 L 130.4909,247.33267 z M 122.90598,242.84577 L 128.36221,242.84577 L 125.60794,237.13119 L 122.90598,242.84577 L 122.90598,242.84577 z "
     id="path25"
     style="fill:#ffffff" /><path
     d="M 143.46586,235.49037 L 150.7476,244.0948 L 150.7476,235.46796 C 150.7476,234.85305 150.94083,234.37799 151.32514,234.04919 C 151.70946,233.72038 152.23576,233.55598 152.89978,233.55598 C 153.58087,233.55598 154.11678,233.72038 154.5075,234.04919 C 154.89822,234.38013 155.09358,234.85305 155.09358,235.46796 L 155.09358,247.15546 C 155.09358,248.60092 154.26303,249.32258 152.59873,249.32258 C 152.18986,249.32258 151.82476,249.28095 151.50236,249.19554 C 151.17996,249.11014 150.87677,248.97349 150.59067,248.78667 C 150.3067,248.59878 150.0633,248.40342 149.8626,248.19632 C 149.66191,247.98922 149.43772,247.75649 149.18898,247.4896 L 142.02894,238.88517 L 142.02894,247.38498 C 142.02894,248.0063 141.82291,248.48349 141.4119,248.81977 C 140.99876,249.15391 140.47139,249.32258 139.82873,249.32258 C 139.15831,249.32258 138.62454,249.15391 138.22527,248.81656 C 137.82601,248.48242 137.62745,248.00309 137.62745,247.38605 L 137.62745,235.9238 C 137.62745,235.41244 137.70004,235.02813 137.84736,234.76871 C 138.05447,234.3908 138.38541,234.09402 138.83911,233.87838 C 139.29175,233.66167 139.78283,233.55278 140.30913,233.55278 C 140.71906,233.55278 141.07242,233.60295 141.3692,233.7033 C 141.66598,233.80472 141.92433,233.93496 142.1421,234.09936 C 142.35882,234.26056 142.57126,234.46446 142.78263,234.70146 C 142.9908,234.94486 143.21926,235.20748 143.46586,235.49037 L 143.46586,235.49037 z "
     id="path27"
     style="fill:#ffffff" /><path
     d="M 164.60329,235.49037 L 171.88396,244.0948 L 171.88396,235.46796 C 171.88396,234.85305 172.07719,234.37799 172.46257,234.04919 C 172.84689,233.72038 173.37212,233.55598 174.03614,233.55598 C 174.7183,233.55598 175.25421,233.72038 175.64386,234.04919 C 176.03459,234.38013 176.22995,234.85305 176.22995,235.46796 L 176.22995,247.15546 C 176.22995,248.60092 175.3994,249.32258 173.73616,249.32258 C 173.32729,249.32258 172.96112,249.28095 172.63979,249.19554 C 172.31632,249.11014 172.01314,248.97349 171.7281,248.78667 C 171.44307,248.59878 171.20073,248.40342 171.00004,248.19632 C 170.79934,247.99242 170.57515,247.75649 170.32641,247.4896 L 163.16638,238.88517 L 163.16638,247.38498 C 163.16638,248.0063 162.96034,248.48349 162.54827,248.81977 C 162.13619,249.15391 161.60882,249.32258 160.96509,249.32258 C 160.29467,249.32258 159.7609,249.15391 159.36164,248.81656 C 158.96344,248.48242 158.76381,248.00309 158.76381,247.38605 L 158.76381,235.9238 C 158.76381,235.41244 158.8364,235.02813 158.98373,234.76871 C 159.19083,234.3908 159.52177,234.09402 159.97548,233.87838 C 160.42918,233.66167 160.91919,233.55278 161.44656,233.55278 C 161.85543,233.55278 162.20879,233.60295 162.50663,233.7033 C 162.80341,233.80472 163.06176,233.93496 163.27847,234.09936 C 163.49518,234.26056 163.70869,234.46446 163.919,234.70146 C 164.12824,234.94272 164.35562,235.20748 164.60329,235.49037 L 164.60329,235.49037 z "
     id="path29"
     style="fill:#ffffff" /><path
     d="M 193.4356,236.51736 L 184.50237,236.51736 L 184.50237,239.77764 L 192.70647,239.77764 C 193.40891,239.77764 193.94269,239.89934 194.30779,240.14274 C 194.67396,240.38721 194.85651,240.70214 194.85651,241.08966 C 194.85651,241.48999 194.67609,241.81773 194.31419,242.06753 C 193.9555,242.31841 193.41745,242.44544 192.70647,242.44544 L 184.50237,242.44544 L 184.50237,246.27687 L 193.75266,246.27687 C 194.47433,246.27687 195.02625,246.40711 195.41056,246.66439 C 195.79275,246.91847 195.98384,247.25901 195.98384,247.67109 C 195.98384,248.08956 195.79168,248.42157 195.40843,248.68099 C 195.02518,248.93933 194.47219,249.06851 193.75266,249.06851 L 182.63309,249.06851 C 181.66163,249.06851 180.95491,248.90197 180.50868,248.56996 C 180.06458,248.23902 179.84146,247.71806 179.84146,247.01241 L 179.84146,235.8416 C 179.84146,235.38149 179.93967,235.00251 180.13397,234.69612 C 180.33146,234.3876 180.63998,234.16341 181.06167,234.02143 C 181.48335,233.87945 182.00858,233.80685 182.63309,233.80685 L 193.4356,233.80685 C 194.16794,233.80685 194.71773,233.93176 195.09244,234.18263 C 195.46714,234.43137 195.6529,234.75377 195.6529,235.14769 C 195.6529,235.55977 195.46394,235.88964 195.0903,236.14265 C 194.71666,236.39245 194.16581,236.51736 193.4356,236.51736 L 193.4356,236.51736 z "
     id="path31"
     style="fill:#ffffff" /><path
     d="M 202.44143,235.57044 L 202.44143,246.19147 L 210.4523,246.19147 C 211.19104,246.19147 211.76539,246.32918 212.17639,246.60247 C 212.5874,246.8779 212.79237,247.21951 212.79237,247.63052 C 212.79237,248.05861 212.58953,248.40876 212.17853,248.67351 C 211.76859,248.9404 211.19318,249.07278 210.4523,249.07278 L 200.57322,249.07278 C 199.60175,249.07278 198.8929,248.90624 198.4488,248.57423 C 198.00257,248.24116 197.78159,247.72019 197.78159,247.01668 L 197.78159,235.57044 C 197.78159,234.9203 197.99189,234.41963 198.41571,234.07694 C 198.83846,233.73106 199.39679,233.55918 200.09176,233.55918 C 200.78993,233.55918 201.35894,233.72999 201.79343,234.07267 C 202.22472,234.41322 202.44143,234.9107 202.44143,235.57044 L 202.44143,235.57044 z "
     id="path33"
     style="fill:#ffffff" /></g><path
   d=""
   style="fill:#2cb1e6"
   id="path35" /></svg>